<mxfile host="app.diagrams.net" agent="Mozilla/5.0 (Windows NT 10.0; Win64; x64) AppleWebKit/537.36 (KHTML, like Gecko) Chrome/134.0.0.0 Safari/537.36" version="26.2.4">
  <diagram id="prtHgNgQTEPvFCAcTncT" name="Page-1">
    <mxGraphModel dx="1103" dy="569" grid="1" gridSize="10" guides="1" tooltips="1" connect="1" arrows="1" fold="1" page="1" pageScale="1" pageWidth="1169" pageHeight="827" math="0" shadow="0">
      <root>
        <mxCell id="0" />
        <mxCell id="1" parent="0" />
        <mxCell id="Dvvf518yZU_GAhTbx-Bf-2" value="&lt;b&gt;RGC&lt;/b&gt;" style="shape=ext;double=1;rounded=0;whiteSpace=wrap;html=1;" vertex="1" parent="1">
          <mxGeometry x="540" y="160" width="120" height="80" as="geometry" />
        </mxCell>
        <mxCell id="Dvvf518yZU_GAhTbx-Bf-7" style="edgeStyle=none;rounded=0;orthogonalLoop=1;jettySize=auto;html=1;exitX=0.5;exitY=1;exitDx=0;exitDy=0;endArrow=none;startFill=0;" edge="1" parent="1" source="Dvvf518yZU_GAhTbx-Bf-3" target="Dvvf518yZU_GAhTbx-Bf-2">
          <mxGeometry relative="1" as="geometry" />
        </mxCell>
        <mxCell id="Dvvf518yZU_GAhTbx-Bf-3" value="MARCELO&amp;nbsp;" style="shape=ext;double=1;rounded=1;whiteSpace=wrap;html=1;" vertex="1" parent="1">
          <mxGeometry x="540" y="30" width="120" height="80" as="geometry" />
        </mxCell>
        <mxCell id="Dvvf518yZU_GAhTbx-Bf-11" style="edgeStyle=none;rounded=0;orthogonalLoop=1;jettySize=auto;html=1;exitX=0.484;exitY=0.6;exitDx=0;exitDy=0;exitPerimeter=0;endArrow=none;startFill=0;" edge="1" parent="1" source="Dvvf518yZU_GAhTbx-Bf-8" target="Dvvf518yZU_GAhTbx-Bf-9">
          <mxGeometry relative="1" as="geometry" />
        </mxCell>
        <mxCell id="Dvvf518yZU_GAhTbx-Bf-13" style="edgeStyle=none;rounded=0;orthogonalLoop=1;jettySize=auto;html=1;entryX=0.5;entryY=0;entryDx=0;entryDy=0;exitX=1;exitY=0.5;exitDx=0;exitDy=0;exitPerimeter=0;endArrow=none;startFill=0;" edge="1" parent="1" source="Dvvf518yZU_GAhTbx-Bf-8" target="Dvvf518yZU_GAhTbx-Bf-12">
          <mxGeometry relative="1" as="geometry" />
        </mxCell>
        <mxCell id="Dvvf518yZU_GAhTbx-Bf-16" style="edgeStyle=none;rounded=0;orthogonalLoop=1;jettySize=auto;html=1;exitX=0;exitY=0.5;exitDx=0;exitDy=0;exitPerimeter=0;endArrow=none;startFill=0;" edge="1" parent="1" source="Dvvf518yZU_GAhTbx-Bf-8" target="Dvvf518yZU_GAhTbx-Bf-14">
          <mxGeometry relative="1" as="geometry" />
        </mxCell>
        <mxCell id="Dvvf518yZU_GAhTbx-Bf-8" value="" style="line;strokeWidth=2;html=1;" vertex="1" parent="1">
          <mxGeometry x="380" y="280" width="450" height="10" as="geometry" />
        </mxCell>
        <mxCell id="Dvvf518yZU_GAhTbx-Bf-9" value="MANTER SERVIDORES" style="shape=ext;double=1;rounded=0;whiteSpace=wrap;html=1;" vertex="1" parent="1">
          <mxGeometry x="540" y="354" width="120" height="80" as="geometry" />
        </mxCell>
        <mxCell id="Dvvf518yZU_GAhTbx-Bf-10" style="edgeStyle=none;rounded=0;orthogonalLoop=1;jettySize=auto;html=1;entryX=0.486;entryY=0.517;entryDx=0;entryDy=0;entryPerimeter=0;endArrow=none;endFill=0;startFill=0;" edge="1" parent="1" source="Dvvf518yZU_GAhTbx-Bf-2" target="Dvvf518yZU_GAhTbx-Bf-8">
          <mxGeometry relative="1" as="geometry" />
        </mxCell>
        <mxCell id="Dvvf518yZU_GAhTbx-Bf-12" value="&lt;b&gt;CONSULTORIA&lt;/b&gt;&lt;br&gt;Arquitetura&lt;div&gt;Desenvolvimento&lt;/div&gt;" style="shape=ext;double=1;rounded=0;whiteSpace=wrap;html=1;" vertex="1" parent="1">
          <mxGeometry x="770" y="360" width="130" height="80" as="geometry" />
        </mxCell>
        <mxCell id="Dvvf518yZU_GAhTbx-Bf-14" value="&lt;b&gt;DevOps&lt;/b&gt;&lt;div&gt;(automatizar build, testes e implantação)&lt;/div&gt;" style="shape=ext;double=1;rounded=0;whiteSpace=wrap;html=1;" vertex="1" parent="1">
          <mxGeometry x="310" y="354" width="130" height="80" as="geometry" />
        </mxCell>
        <mxCell id="Dvvf518yZU_GAhTbx-Bf-18" value="" style="rounded=1;whiteSpace=wrap;html=1;strokeWidth=2;fillWeight=4;hachureGap=8;hachureAngle=45;fillColor=#1ba1e2;sketch=1;" vertex="1" parent="1">
          <mxGeometry x="490" y="390" width="120" height="60" as="geometry" />
        </mxCell>
      </root>
    </mxGraphModel>
  </diagram>
</mxfile>
